<?xml version="1.0" encoding="UTF-8" standalone="no"?>
<svg
   xmlns:dc="http://purl.org/dc/elements/1.1/"
   xmlns:cc="http://creativecommons.org/ns#"
   xmlns:rdf="http://www.w3.org/1999/02/22-rdf-syntax-ns#"
   xmlns:svg="http://www.w3.org/2000/svg"
   xmlns="http://www.w3.org/2000/svg"
   xmlns:xlink="http://www.w3.org/1999/xlink"
   xmlns:sodipodi="http://sodipodi.sourceforge.net/DTD/sodipodi-0.dtd"
   xmlns:inkscape="http://www.inkscape.org/namespaces/inkscape"
   inkscape:version="1.0beta1 (32d4812, 2019-09-19)"
   height="52.696251"
   width="59"
   sodipodi:docname="servings.svg"
   xml:space="preserve"
   viewBox="0 0 59 52.696251"
   y="0px"
   x="0px"
   id="Capa_1"
   version="1.1"><metadata
   id="metadata71">
  <rdf:RDF>
    <cc:Work
       rdf:about="">
      <dc:format>image/svg+xml</dc:format>
      <dc:type
         rdf:resource="http://purl.org/dc/dcmitype/StillImage" />
      <dc:title></dc:title>
    </cc:Work>
  </rdf:RDF>
</metadata>
<defs
   id="defs69">
  <linearGradient
     id="linearGradient900"
     inkscape:collect="always">
    <stop
       id="stop896"
       offset="0"
       style="stop-color:#4fd1c5;stop-opacity:1;" />
    <stop
       id="stop898"
       offset="1"
       style="stop-color:#4fd1c5;stop-opacity:0;" />
  </linearGradient>
  <linearGradient
     gradientUnits="userSpaceOnUse"
     y2="49.7745"
     x2="59"
     y1="49.7745"
     x1="0"
     id="linearGradient902"
     xlink:href="#linearGradient900"
     inkscape:collect="always" />
</defs>
<sodipodi:namedview
   inkscape:current-layer="g34"
   inkscape:window-maximized="0"
   inkscape:window-y="23"
   inkscape:window-x="0"
   inkscape:cy="21.460655"
   inkscape:cx="6.3433492"
   inkscape:zoom="5.9917843"
   showborder="false"
   inkscape:pagecheckerboard="true"
   fit-margin-bottom="0"
   fit-margin-right="0"
   fit-margin-left="0"
   fit-margin-top="0"
   showgrid="false"
   id="namedview67"
   inkscape:window-height="855"
   inkscape:window-width="1440"
   inkscape:pageshadow="2"
   inkscape:pageopacity="0"
   guidetolerance="10"
   gridtolerance="10"
   objecttolerance="10"
   borderopacity="1"
   inkscape:document-rotation="0"
   bordercolor="#666666"
   pagecolor="#ffffff" />

<g
   transform="translate(0,-3.15175)"
   id="g34">
	<g
   style="fill:#4fd1c5;fill-opacity:1"
   id="g14">
		<path
   inkscape:connector-curvature="0"
   id="path10"
   d="m 54.221,44.616 c 0.182,1.218 0.279,2.463 0.279,3.732 -16.433,3.944 -33.567,3.944 -50,0 0,-1.269 0.096,-2.514 0.279,-3.732 -2.712,1.46 -4.279,2.986 -4.279,4.232 0,3.59 12.984,6.5 29,6.5 16.016,0 29,-2.91 29,-6.5 0,-1.246 -1.567,-2.772 -4.279,-4.232 z"
   style="fill:#4fd1c5;fill-opacity:1" />

		<path
   inkscape:connector-curvature="0"
   id="path12"
   d="m 29.5,55.848 c -14.301,0 -29.5,-2.453 -29.5,-7 0,-1.84 2.47,-3.557 4.541,-4.673 L 5.42,43.701 5.273,44.689 c -0.162,1.08 -0.252,2.177 -0.27,3.264 16.034,3.783 32.959,3.783 48.993,0 -0.018,-1.087 -0.108,-2.184 -0.27,-3.264 l -0.147,-0.988 0.879,0.474 C 56.53,45.291 59,47.008 59,48.848 c 0,4.547 -15.199,7 -29.5,7 z M 4.154,45.546 C 2.162,46.745 1,47.95 1,48.848 c 0,2.838 11.705,6 28.5,6 16.795,0 28.5,-3.162 28.5,-6 0,-0.897 -1.162,-2.103 -3.154,-3.302 0.102,0.933 0.154,1.871 0.154,2.802 v 0.395 l -0.383,0.092 c -16.432,3.943 -33.802,3.943 -50.233,0 L 4,48.742 v -0.395 c 0,-0.93 0.052,-1.868 0.154,-2.801 z"
   style="fill:#4fd1c5;fill-opacity:1" />

	</g>

	<g
   style="fill:#81e6d9;fill-opacity:1"
   id="g20">
		<path
   sodipodi:nodetypes="cssccc"
   inkscape:connector-curvature="0"
   id="path16"
   d="m 4.5,48.348 c 0,-13.807 11.193,-25 25,-25 6.707251,0 12.797628,2.641417 17.287637,6.940755 C 51.540394,34.839684 54.5,41.248251 54.5,48.348 v 0 c -16.433,3.944 -33.567,3.944 -50,0 z"
   style="fill:#b2f5ea;fill-opacity:1" />

		<path
   inkscape:connector-curvature="0"
   id="path18"
   d="m 29.5,51.792 c -8.451,0 -16.901,-0.986 -25.117,-2.958 L 4,48.742 v -0.395 c 0,-14.061 11.439,-25.5 25.5,-25.5 14.061,0 25.5,11.44 25.5,25.501 v 0.395 l -0.383,0.092 C 46.401,50.806 37.951,51.792 29.5,51.792 Z M 5.003,47.953 c 16.035,3.785 32.959,3.785 48.994,0 C 53.785,34.626 42.877,23.848 29.5,23.848 16.123,23.848 5.215,34.626 5.003,47.953 Z"
   style="fill:#81e6d9;fill-opacity:1" />

	</g>

	<path
   inkscape:connector-curvature="0"
   id="path22"
   d="m 18.557,21.348 c -0.256,0 -0.512,-0.098 -0.707,-0.293 -1.795,-1.795 -1.795,-4.717 0,-6.512 0.492,-0.492 0.764,-1.146 0.764,-1.842 0,-0.696 -0.271,-1.35 -0.764,-1.842 -0.391,-0.391 -0.391,-1.023 0,-1.414 0.391,-0.391 1.023,-0.391 1.414,0 0.87,0.87 1.35,2.026 1.35,3.256 0,1.23 -0.479,2.386 -1.35,3.256 -1.015,1.016 -1.015,2.668 0,3.684 0.391,0.391 0.391,1.023 0,1.414 -0.196,0.195 -0.452,0.293 -0.707,0.293 z"
   style="fill:#81e6d9;fill-opacity:1" />

	<path
   inkscape:connector-curvature="0"
   id="path24"
   d="m 40.557,21.348 c -0.256,0 -0.512,-0.098 -0.707,-0.293 -1.795,-1.795 -1.795,-4.717 0,-6.512 0.492,-0.492 0.764,-1.146 0.764,-1.842 0,-0.696 -0.271,-1.35 -0.764,-1.842 -0.391,-0.391 -0.391,-1.023 0,-1.414 0.391,-0.391 1.023,-0.391 1.414,0 0.87,0.87 1.35,2.026 1.35,3.256 0,1.23 -0.479,2.386 -1.35,3.256 -1.015,1.016 -1.015,2.668 0,3.684 0.391,0.391 0.391,1.023 0,1.414 -0.196,0.195 -0.452,0.293 -0.707,0.293 z"
   style="fill:#81e6d9;fill-opacity:1" />

	<path
   inkscape:connector-curvature="0"
   id="path26"
   d="m 29.557,15.348 c -0.256,0 -0.512,-0.098 -0.707,-0.293 -1.795,-1.795 -1.795,-4.717 0,-6.512 0.492,-0.492 0.764,-1.146 0.764,-1.842 0,-0.696 -0.271,-1.35 -0.764,-1.842 -0.391,-0.391 -0.391,-1.023 0,-1.414 0.391,-0.391 1.023,-0.391 1.414,0 0.87,0.87 1.35,2.026 1.35,3.256 0,1.23 -0.479,2.386 -1.35,3.256 -1.015,1.016 -1.015,2.668 0,3.684 0.391,0.391 0.391,1.023 0,1.414 -0.196,0.195 -0.452,0.293 -0.707,0.293 z"
   style="fill:#81e6d9;fill-opacity:1" />

	<path
   inkscape:connector-curvature="0"
   id="path28"
   d="M 33.947,24.744 33.122,24.62 c -2.394,-0.361 -4.85,-0.361 -7.243,0 l -0.825,0.124 -0.27,-0.79 c -0.19,-0.558 -0.283,-1.083 -0.283,-1.606 0,-2.757 2.243,-5 5,-5 2.757,0 5,2.243 5,5 0,0.523 -0.093,1.049 -0.283,1.606 z M 29.5,22.348 c 0.996,0 2,0.058 2.994,0.172 0.004,-0.058 0.006,-0.115 0.006,-0.172 0,-1.654 -1.346,-3 -3,-3 -1.654,0 -3,1.346 -3,3 0,0.057 0.002,0.114 0.006,0.172 0.994,-0.115 1.998,-0.172 2.994,-0.172 z"
   style="fill:#4fd1c5;fill-opacity:1" />

	<path
   inkscape:connector-curvature="0"
   id="path30"
   d="m 24.845,28.86 c -0.457,0 -0.87,-0.315 -0.975,-0.78 -0.122,-0.539 0.217,-1.074 0.756,-1.195 1.582,-0.356 3.217,-0.537 4.86,-0.537 0.557,0.043 1.014,0.443 1.013,1.001 0,0.552 -0.448,0.999 -1,0.999 v 0 c -0.004,0 -0.009,0 -0.013,0 -1.496,0 -2.982,0.164 -4.421,0.488 -0.073,0.017 -0.147,0.024 -0.22,0.024 z"
   style="fill:#ffffff" />

	<path
   inkscape:connector-curvature="0"
   id="path32"
   d="m 9.501,45.348 c -0.06,0 -0.12,-0.005 -0.18,-0.017 C 8.778,45.232 8.417,44.712 8.516,44.168 9.658,37.908 13.447,32.33 18.65,29.247 c 0.476,-0.281 1.088,-0.125 1.37,0.351 0.282,0.476 0.125,1.089 -0.351,1.37 -4.713,2.792 -8.147,7.861 -9.186,13.56 -0.087,0.482 -0.508,0.82 -0.982,0.82 z"
   style="fill:#ffffff" />

</g>

<g
   transform="translate(0,-3.15175)"
   id="g36">
</g>

<g
   transform="translate(0,-3.15175)"
   id="g38">
</g>

<g
   transform="translate(0,-3.15175)"
   id="g40">
</g>

<g
   transform="translate(0,-3.15175)"
   id="g42">
</g>

<g
   transform="translate(0,-3.15175)"
   id="g44">
</g>

<g
   transform="translate(0,-3.15175)"
   id="g46">
</g>

<g
   transform="translate(0,-3.15175)"
   id="g48">
</g>

<g
   transform="translate(0,-3.15175)"
   id="g50">
</g>

<g
   transform="translate(0,-3.15175)"
   id="g52">
</g>

<g
   transform="translate(0,-3.15175)"
   id="g54">
</g>

<g
   transform="translate(0,-3.15175)"
   id="g56">
</g>

<g
   transform="translate(0,-3.15175)"
   id="g58">
</g>

<g
   transform="translate(0,-3.15175)"
   id="g60">
</g>

<g
   transform="translate(0,-3.15175)"
   id="g62">
</g>

<g
   transform="translate(0,-3.15175)"
   id="g64">
</g>

</svg>
