<?xml version="1.0" encoding="UTF-8" standalone="no"?>
<svg
   xmlns:dc="http://purl.org/dc/elements/1.1/"
   xmlns:cc="http://creativecommons.org/ns#"
   xmlns:rdf="http://www.w3.org/1999/02/22-rdf-syntax-ns#"
   xmlns:svg="http://www.w3.org/2000/svg"
   xmlns="http://www.w3.org/2000/svg"
   xmlns:sodipodi="http://sodipodi.sourceforge.net/DTD/sodipodi-0.dtd"
   xmlns:inkscape="http://www.inkscape.org/namespaces/inkscape"
   inkscape:version="1.0beta1 (32d4812, 2019-09-19)"
   sodipodi:docname="tools.svg"
   xml:space="preserve"
   enable-background="new 0 0 50 50"
   viewBox="0 0 35.063999 43.48"
   height="43.48"
   width="35.063999"
   y="0px"
   x="0px"
   id="Layer_1"
   version="1.1"><metadata
   id="metadata864">
  <rdf:RDF>
    <cc:Work
       rdf:about="">
      <dc:format>image/svg+xml</dc:format>
      <dc:type
         rdf:resource="http://purl.org/dc/dcmitype/StillImage" />
      <dc:title></dc:title>
    </cc:Work>
  </rdf:RDF>
</metadata>
<defs
   id="defs862" />
<sodipodi:namedview
   inkscape:current-layer="g857"
   inkscape:window-maximized="0"
   inkscape:window-y="23"
   inkscape:window-x="0"
   inkscape:cy="28.993048"
   inkscape:cx="10.358764"
   inkscape:zoom="10.678521"
   showborder="false"
   inkscape:pagecheckerboard="true"
   fit-margin-bottom="0"
   fit-margin-right="0"
   fit-margin-left="0"
   fit-margin-top="0"
   showgrid="false"
   id="namedview860"
   inkscape:window-height="855"
   inkscape:window-width="1440"
   inkscape:pageshadow="2"
   inkscape:pageopacity="0"
   guidetolerance="10"
   gridtolerance="10"
   objecttolerance="10"
   borderopacity="1"
   inkscape:document-rotation="0"
   bordercolor="#666666"
   pagecolor="#ffffff" />

<g
   transform="translate(-6.468,-3.661)"
   id="g857">
	<path
   style="fill:#b2f5ea;fill-opacity:1"
   inkscape:connector-curvature="0"
   id="path833"
   d="m 11.377,46.438 c -1.162,0 -2.104,-0.942 -2.104,-2.104 V 33.816 h 4.207 v 10.519 c 10e-4,1.162 -0.941,2.103 -2.103,2.103 z m 0,0"
   fill="#FFA64D" />

	<path
   style="fill:#b2f5ea;fill-opacity:1"
   inkscape:connector-curvature="0"
   id="path835"
   d="m 22.598,46.438 c -1.162,0 -2.104,-0.942 -2.104,-2.104 V 33.816 h 4.208 v 10.519 c 0,1.162 -0.943,2.103 -2.104,2.103 z m 0,0"
   fill="#FFA64D" />

	<path
   style="fill:#81e6d9;fill-opacity:1"
   inkscape:connector-curvature="0"
   id="path837"
   d="m 39.428,27.504 h -8.415 c -1.16,0 -2.104,-0.944 -2.104,-2.104 V 5.765 c 0,-1.16 0.944,-2.104 2.104,-2.104 h 8.415 c 1.16,0 2.104,0.944 2.104,2.104 V 25.4 c 0,1.16 -0.944,2.104 -2.104,2.104 z m 0,0"
   fill="#FFA64D" />

	<path
   inkscape:connector-curvature="0"
   id="path839"
   d="m 37.324,30.309 v -2.805 h -1.403 v 2.805 h -1.403 v -2.805 h -1.402 v 2.805 c -1.16,0 -2.104,0.944 -2.104,2.104 v 12.623 c 0,1.16 0.944,2.104 2.104,2.104 h 4.207 c 1.16,0 2.104,-0.944 2.104,-2.104 V 32.413 c 10e-4,-1.16 -0.943,-2.104 -2.103,-2.104 z m 0.701,14.727 c 0,0.387 -0.314,0.701 -0.701,0.701 h -4.207 c -0.387,0 -0.702,-0.314 -0.702,-0.701 V 32.413 c 0,-0.387 0.314,-0.701 0.702,-0.701 h 4.207 c 0.387,0 0.701,0.314 0.701,0.701 z m 0,0"
   fill="#333333" />

	<path
   inkscape:connector-curvature="0"
   id="path841"
   d="M 25.403,30.309 H 23.299 V 17.624 c 1.987,-0.336 3.506,-2.063 3.506,-4.145 V 3.661 h -1.403 v 9.818 c 0,1.547 -1.258,2.805 -2.805,2.805 -1.547,0 -2.805,-1.258 -2.805,-2.805 V 3.661 H 18.39 v 9.818 c 0,2.081 1.52,3.808 3.506,4.145 V 30.31 h -2.104 c -1.16,0 -2.104,0.944 -2.104,2.104 0,1.16 0.944,2.104 2.104,2.104 v 9.818 c 0,1.547 1.258,2.805 2.805,2.805 1.547,0 2.805,-1.258 2.805,-2.805 v -9.818 c 1.16,0 2.104,-0.944 2.104,-2.104 0,-1.161 -0.943,-2.105 -2.103,-2.105 z m -2.805,15.428 c -0.773,0 -1.403,-0.63 -1.403,-1.403 V 37.321 H 24 v 7.013 c 0,0.774 -0.63,1.403 -1.402,1.403 z M 24,35.919 H 21.195 V 34.517 H 24 Z m 1.403,-2.804 h -5.61 c -0.387,0 -0.701,-0.314 -0.701,-0.702 0,-0.387 0.314,-0.701 0.701,-0.701 h 5.61 c 0.387,0 0.702,0.314 0.702,0.701 -0.001,0.387 -0.315,0.702 -0.702,0.702 z m 0,0"
   fill="#333333" />

	<path
   inkscape:connector-curvature="0"
   id="path843"
   d="M 14.182,30.309 H 12.078 V 3.661 H 10.675 V 30.309 H 8.572 c -1.16,0 -2.104,0.944 -2.104,2.104 0,1.16 0.944,2.104 2.104,2.104 v 9.818 c 0,1.547 1.258,2.805 2.805,2.805 1.547,0 2.805,-1.258 2.805,-2.805 v -9.818 c 1.16,0 2.104,-0.944 2.104,-2.104 0,-1.16 -0.944,-2.104 -2.104,-2.104 z m -2.805,15.428 c -0.773,0 -1.403,-0.63 -1.403,-1.403 v -7.013 h 2.805 v 7.013 c 10e-4,0.774 -0.629,1.403 -1.402,1.403 z M 12.78,35.919 H 9.974 v -1.402 h 2.805 v 1.402 z m 1.402,-2.804 h -5.61 c -0.387,0 -0.702,-0.314 -0.702,-0.702 0,-0.387 0.314,-0.701 0.702,-0.701 h 5.61 c 0.387,0 0.701,0.314 0.701,0.701 0.001,0.387 -0.314,0.702 -0.701,0.702 z m 0,0"
   fill="#333333" />

	<path
   inkscape:connector-curvature="0"
   id="path845"
   d="m 38.988,21.843 -7.014,2.803 -0.52,-1.302 7.014,-2.803 z m 0,0"
   fill="#333333" />

	<path
   inkscape:connector-curvature="0"
   id="path847"
   d="m 38.99,18.336 -4.366,1.747 -0.521,-1.302 4.366,-1.747 z m 0,0"
   fill="#333333" />

	<path
   inkscape:connector-curvature="0"
   id="path849"
   d="m 33.345,20.597 -1.37,0.547 -0.52,-1.303 1.37,-0.547 z m 0,0"
   fill="#333333" />

	<path
   inkscape:connector-curvature="0"
   id="path851"
   d="m 38.988,14.834 -7.014,2.803 -0.52,-1.303 7.014,-2.803 z m 0,0"
   fill="#333333" />

	<path
   inkscape:connector-curvature="0"
   id="path853"
   d="m 38.987,11.325 -7.014,2.803 -0.52,-1.303 7.014,-2.803 z m 0,0"
   fill="#333333" />

	<path
   inkscape:connector-curvature="0"
   id="path855"
   d="m 38.987,7.818 -7.013,2.803 -0.52,-1.303 7.013,-2.803 z m 0,0"
   fill="#333333" />

</g>

</svg>
